<?xml version="1.0" encoding="UTF-8" standalone="no"?>
<!-- Created with Inkscape (http://www.inkscape.org/) -->

<svg
   width="128"
   height="128"
   viewBox="0 0 33.866666 33.866665"
   version="1.1"
   id="svg503"
   inkscape:version="1.2.2 (732a01da63, 2022-12-09)"
   sodipodi:docname="coin_1.svg"
   xmlns:inkscape="http://www.inkscape.org/namespaces/inkscape"
   xmlns:sodipodi="http://sodipodi.sourceforge.net/DTD/sodipodi-0.dtd"
   xmlns="http://www.w3.org/2000/svg"
   xmlns:svg="http://www.w3.org/2000/svg">
  <sodipodi:namedview
     id="namedview505"
     pagecolor="#ffffff"
     bordercolor="#000000"
     borderopacity="0.25"
     inkscape:showpageshadow="2"
     inkscape:pageopacity="0.0"
     inkscape:pagecheckerboard="0"
     inkscape:deskcolor="#d1d1d1"
     inkscape:document-units="mm"
     showgrid="false"
     inkscape:zoom="2.8649832"
     inkscape:cx="231.24045"
     inkscape:cy="101.39676"
     inkscape:window-width="1920"
     inkscape:window-height="991"
     inkscape:window-x="1691"
     inkscape:window-y="217"
     inkscape:window-maximized="1"
     inkscape:current-layer="layer1" />
  <defs
     id="defs500">
    <clipPath
       clipPathUnits="userSpaceOnUse"
       id="clipPath162">
      <path
         d="M 0,300 H 300 V 0 H 0 Z"
         id="path160" />
    </clipPath>
  </defs>
  <g
     inkscape:label="Ebene 1"
     inkscape:groupmode="layer"
     id="layer1">
    <g
       id="g156"
       transform="matrix(0.35277777,0,0,-0.35277777,-35.924128,69.909205)">
      <g
         id="g158"
         clip-path="url(#clipPath162)">
        <g
           id="g164"
           transform="translate(104.1655,150)">
          <path
             d="M 0,0 C 0,25.313 20.521,45.834 45.834,45.834 71.148,45.834 91.669,25.313 91.669,0 91.669,-25.313 71.148,-45.834 45.834,-45.834 20.521,-45.834 0,-25.313 0,0"
             style="fill:#ffd715;fill-opacity:1;fill-rule:nonzero;stroke:none"
             id="path166" />
        </g>
        <g
           id="g168"
           transform="translate(104.1655,150)">
          <path
             d="M 0,0 C 0,25.313 20.521,45.834 45.834,45.834 71.148,45.834 91.669,25.313 91.669,0 91.669,-25.313 71.148,-45.834 45.834,-45.834 20.521,-45.834 0,-25.313 0,0 Z"
             style="fill:none;stroke:#a94722;stroke-width:1;stroke-linecap:butt;stroke-linejoin:miter;stroke-miterlimit:10;stroke-dasharray:none;stroke-opacity:1"
             id="path170" />
        </g>
        <g
           id="g172"
           transform="translate(111.1011,150)">
          <path
             d="M 0,0 C 0,21.483 17.416,38.899 38.899,38.899 60.382,38.899 77.798,21.483 77.798,0 77.798,-21.483 60.382,-38.899 38.899,-38.899 17.416,-38.899 0,-21.483 0,0"
             style="fill:#ffcc01;fill-opacity:1;fill-rule:nonzero;stroke:none"
             id="path174" />
        </g>
        <g
           id="g176"
           transform="translate(188.8164,152.917)">
          <path
             d="m 0,0 c -2.781,-6.622 -7.427,-12.551 -13.779,-16.93 -17.689,-12.192 -41.912,-7.736 -54.104,9.953 -4.234,6.144 -6.458,13.075 -6.819,20.017 -4.964,-11.817 -3.988,-25.837 3.826,-37.174 12.191,-17.688 36.415,-22.145 54.103,-9.953 C -5.228,-26.129 0.679,-13.046 0,0"
             style="fill:#fcbd11;fill-opacity:1;fill-rule:nonzero;stroke:none"
             id="path178" />
        </g>
        <g
           id="g180"
           transform="translate(129.0806,175.2305)">
          <path
             d="m 0,0 c 15.614,10.762 36.997,6.829 47.759,-8.786 6.291,-9.127 7.558,-20.224 4.409,-30.019 5.111,10.723 4.51,23.806 -2.716,34.29 C 38.69,11.1 17.307,15.033 1.693,4.271 -4.795,-0.201 -9.264,-6.506 -11.502,-13.469 -9.001,-8.22 -5.131,-3.537 0,0"
             style="fill:#ffdb53;fill-opacity:1;fill-rule:nonzero;stroke:none"
             id="path182" />
        </g>
        <g
           id="g184"
           transform="translate(161.0664,149.7114)">
          <path
             d="m 0,0 c 0.245,0.667 0.616,1.125 1.146,1.785 0.583,0.727 1.145,1.481 1.442,2.337 0.236,0.68 0.284,1.42 0.132,2.157 0.078,0.658 -0.007,1.365 -0.321,1.991 -0.69,1.38 -2.261,2.23 -4.02,2.406 -0.83,0.379 -1.714,0.674 -2.591,0.83 -0.477,0.922 -1.656,1.646 -2.896,1.813 -1.202,0.162 -2.126,-0.195 -2.926,-0.715 -1.063,-0.69 -1.911,-1.603 -2.483,-2.596 -0.27,-0.468 -0.49,-0.949 -0.676,-1.438 -0.278,-0.489 -0.506,-1.002 -0.68,-1.536 -1.965,-1.969 -3.259,-4.322 -4.248,-6.753 -2.048,-5.035 -3.065,-10.378 -3.404,-15.858 -0.186,-3.005 0.017,-6.317 1.186,-9.405 0.461,-1.216 2.607,-2.221 3.967,-1.63 1.847,0.802 3.157,1.966 4.282,3.325 1.109,1.34 2.152,2.719 3.22,4.081 2.293,2.924 4.487,5.889 6.114,9.132 0.782,1.557 1.406,3.182 1.781,4.876 C -0.595,-3.481 -0.607,-1.655 0,0"
             style="fill:#c17510;fill-opacity:1;fill-rule:nonzero;stroke:none"
             id="path186" />
        </g>
        <g
           id="g188"
           transform="translate(160.4487,150.1084)">
          <path
             d="m 0,0 c 0.245,0.667 0.616,1.125 1.146,1.786 0.583,0.726 1.145,1.48 1.442,2.336 0.236,0.68 0.284,1.42 0.132,2.157 0.078,0.658 -0.007,1.365 -0.321,1.991 -0.69,1.38 -2.261,2.23 -4.02,2.406 -0.83,0.379 -1.714,0.674 -2.591,0.83 -0.477,0.922 -1.656,1.646 -2.896,1.813 -1.202,0.162 -2.126,-0.195 -2.926,-0.715 -1.063,-0.69 -1.911,-1.603 -2.483,-2.596 -0.27,-0.468 -0.49,-0.949 -0.676,-1.438 -0.278,-0.488 -0.506,-1.001 -0.68,-1.536 -1.965,-1.969 -3.259,-4.322 -4.248,-6.753 -2.048,-5.035 -3.065,-10.378 -3.404,-15.858 -0.186,-3.005 0.017,-6.317 1.186,-9.404 0.461,-1.217 2.607,-2.222 3.967,-1.631 1.847,0.802 3.157,1.966 4.282,3.325 1.109,1.34 2.152,2.719 3.22,4.082 2.293,2.923 4.487,5.888 6.114,9.131 0.782,1.557 1.406,3.182 1.781,4.876 C -0.595,-3.481 -0.607,-1.655 0,0"
             style="fill:#e69a24;fill-opacity:1;fill-rule:nonzero;stroke:none"
             id="path190" />
        </g>
        <g
           id="g192"
           transform="translate(160.6929,159.7114)">
          <path
             d="m 0,0 c -0.167,0.169 -0.357,0.329 -0.572,0.447 -0.09,0.05 -0.222,0.12 -0.326,0.149 0.062,0.218 -0.025,0.631 -0.036,0.83 -0.018,0.336 -0.052,0.671 -0.096,1.007 -0.012,0.094 -0.042,0.178 -0.085,0.253 0.553,2.225 1.846,4.254 2.463,6.465 0.447,1.601 0.537,3.895 -0.571,5.386 -0.111,0.209 -0.241,0.41 -0.397,0.596 -0.488,0.585 -1.271,1.031 -2.073,0.966 -0.871,-0.071 -1.407,-0.745 -1.213,-1.536 0.114,-0.461 0.652,-0.594 1.058,-0.462 0.245,0.078 0.437,0.214 0.576,0.386 0.316,-0.134 0.574,-0.311 0.782,-0.523 0.009,-0.02 0.02,-0.04 0.029,-0.06 0.233,-0.532 0.29,-1.105 0.318,-1.66 C -0.077,10.953 -0.203,9.669 -0.556,8.439 -0.896,7.252 -1.44,6.136 -2.212,5.147 -2.984,4.158 -4.047,3.427 -4.95,2.549 -5.594,2.855 -6.299,2.939 -6.868,2.411 -7.204,2.099 -7.129,1.412 -6.552,1.289 c 0.43,-0.091 0.657,-0.253 0.858,-0.61 0.196,-0.351 0.269,-0.647 0.736,-0.777 0.897,-0.25 2.002,0.248 2.674,-0.657 0.234,-0.315 0.611,-0.455 0.988,-0.303 0.214,0.086 0.361,0.076 0.588,0.005 C -0.009,-1.27 0.491,-0.497 0,0"
             style="fill:#c17510;fill-opacity:1;fill-rule:nonzero;stroke:none"
             id="path194" />
        </g>
        <g
           id="g196"
           transform="translate(160.2905,160.1978)">
          <path
             d="m 0,0 c -0.167,0.169 -0.357,0.329 -0.572,0.447 -0.09,0.05 -0.222,0.12 -0.326,0.149 0.062,0.218 -0.025,0.631 -0.036,0.83 -0.018,0.336 -0.052,0.671 -0.096,1.007 -0.012,0.094 -0.042,0.178 -0.085,0.253 0.553,2.225 1.846,4.254 2.463,6.465 0.447,1.601 0.538,3.895 -0.571,5.386 -0.111,0.209 -0.241,0.41 -0.397,0.596 -0.488,0.585 -1.271,1.031 -2.073,0.966 -0.871,-0.071 -1.407,-0.745 -1.213,-1.536 0.114,-0.461 0.652,-0.594 1.058,-0.462 0.245,0.078 0.437,0.214 0.576,0.386 0.316,-0.133 0.574,-0.311 0.782,-0.523 0.009,-0.02 0.02,-0.04 0.029,-0.06 0.233,-0.532 0.29,-1.105 0.318,-1.66 C -0.077,10.953 -0.203,9.669 -0.556,8.439 -0.896,7.252 -1.44,6.136 -2.212,5.147 -2.984,4.158 -4.047,3.427 -4.95,2.549 -5.594,2.855 -6.299,2.939 -6.867,2.411 -7.204,2.099 -7.129,1.412 -6.552,1.289 c 0.43,-0.091 0.657,-0.253 0.858,-0.61 0.196,-0.351 0.269,-0.647 0.736,-0.777 0.897,-0.25 2.002,0.248 2.674,-0.657 0.234,-0.315 0.611,-0.455 0.988,-0.303 0.214,0.086 0.361,0.076 0.588,0.005 C -0.009,-1.27 0.491,-0.497 0,0"
             style="fill:#e69a24;fill-opacity:1;fill-rule:nonzero;stroke:none"
             id="path198" />
        </g>
        <g
           id="g200"
           transform="translate(108.7373,176.4995)">
          <path
             d="m 0,0 c 0,0 4.764,1.588 4.62,6.641 0,0 0.144,-4.187 3.753,-4.331 0,0 -3.176,-2.454 -0.866,-5.774 0,0 -3.754,5.341 -7.507,3.464"
             style="fill:#ffffff;fill-opacity:1;fill-rule:nonzero;stroke:none"
             id="path202" />
        </g>
        <g
           id="g204"
           transform="translate(123.4756,187.6895)">
          <path
             d="m 0,0 c 0,0 -4.818,-1.414 -7.583,2.818 0,0 2.271,-3.521 -0.611,-5.698 0,0 4.008,-0.204 4.006,-4.248 0,0 0.035,6.527 4.188,7.128"
             style="fill:#ffffff;fill-opacity:1;fill-rule:nonzero;stroke:none"
             id="path206" />
        </g>
        <g
           id="g208"
           transform="translate(113.1802,186.6191)">
          <path
             d="m 0,0 c 0,0 -2.569,-0.717 -4.1,1.619 0,0 1.258,-1.943 -0.264,-3.097 0,0 2.153,-0.156 2.196,-2.359 0,0 -0.054,3.556 2.168,3.837"
             style="fill:#ffffff;fill-opacity:1;fill-rule:nonzero;stroke:none"
             id="path210" />
        </g>
        <g
           id="g212"
           transform="translate(117.8501,175.8647)">
          <path
             d="m 0,0 c 0,0 1.78,1.986 0.363,4.393 0,0 1.186,-1.988 2.894,-1.134 0,0 -0.814,-1.999 1.143,-3.014 C 4.4,0.245 1.235,1.868 0,0"
             style="fill:#ffffff;fill-opacity:1;fill-rule:nonzero;stroke:none"
             id="path214" />
        </g>
        <g
           id="g216"
           transform="translate(110.1987,170.668)">
          <path
             d="m 0,0 c 0,0 1.78,1.986 0.363,4.393 0,0 1.186,-1.988 2.895,-1.135 0,0 -0.814,-1.999 1.142,-3.013 C 4.4,0.245 1.236,1.868 0,0"
             style="fill:#ffffff;fill-opacity:1;fill-rule:nonzero;stroke:none"
             id="path218" />
        </g>
      </g>
    </g>
  </g>
</svg>
