<?xml version="1.0" encoding="UTF-8" standalone="no"?>
<svg
   viewBox="0 0 512 512"
   version="1.1"
   id="svg715"
   sodipodi:docname="circle-arrow-up-solid.svg"
   inkscape:version="1.2.2 (732a01da63, 2022-12-09)"
   xmlns:inkscape="http://www.inkscape.org/namespaces/inkscape"
   xmlns:sodipodi="http://sodipodi.sourceforge.net/DTD/sodipodi-0.dtd"
   xmlns="http://www.w3.org/2000/svg"
   xmlns:svg="http://www.w3.org/2000/svg">
  <defs
     id="defs719" />
  <sodipodi:namedview
     id="namedview717"
     pagecolor="#ffffff"
     bordercolor="#000000"
     borderopacity="0.25"
     inkscape:showpageshadow="2"
     inkscape:pageopacity="0.0"
     inkscape:pagecheckerboard="0"
     inkscape:deskcolor="#d1d1d1"
     showgrid="false"
     inkscape:zoom="1.5703125"
     inkscape:cx="256.95522"
     inkscape:cy="256.95522"
     inkscape:window-width="1920"
     inkscape:window-height="991"
     inkscape:window-x="1701"
     inkscape:window-y="186"
     inkscape:window-maximized="1"
     inkscape:current-layer="svg715" />
  <!--! Font Awesome Pro 6.4.0 by @fontawesome - https://fontawesome.com License - https://fontawesome.com/license (Commercial License) Copyright 2023 Fonticons, Inc. -->
  <path
     d="M256 512A256 256 0 1 0 256 0a256 256 0 1 0 0 512zM385 231c9.4 9.4 9.4 24.6 0 33.9s-24.6 9.4-33.9 0l-71-71V376c0 13.3-10.7 24-24 24s-24-10.7-24-24V193.9l-71 71c-9.4 9.4-24.6 9.4-33.9 0s-9.4-24.6 0-33.9L239 119c9.4-9.4 24.6-9.4 33.9 0L385 231z"
     id="path713"
     style="fill:#ffffff;fill-opacity:0.5" />
</svg>
