<?xml version="1.0" encoding="UTF-8" standalone="no"?>
<svg
   viewBox="0 0 512 512"
   version="1.1"
   id="svg860"
   sodipodi:docname="wine-bottle-solid.svg"
   inkscape:version="1.2.2 (732a01da63, 2022-12-09)"
   xmlns:inkscape="http://www.inkscape.org/namespaces/inkscape"
   xmlns:sodipodi="http://sodipodi.sourceforge.net/DTD/sodipodi-0.dtd"
   xmlns="http://www.w3.org/2000/svg"
   xmlns:svg="http://www.w3.org/2000/svg">
  <defs
     id="defs864" />
  <sodipodi:namedview
     id="namedview862"
     pagecolor="#ffffff"
     bordercolor="#000000"
     borderopacity="0.25"
     inkscape:showpageshadow="2"
     inkscape:pageopacity="0.0"
     inkscape:pagecheckerboard="0"
     inkscape:deskcolor="#d1d1d1"
     showgrid="false"
     inkscape:zoom="1.5703125"
     inkscape:cx="256.95522"
     inkscape:cy="256.95522"
     inkscape:window-width="1920"
     inkscape:window-height="991"
     inkscape:window-x="1701"
     inkscape:window-y="186"
     inkscape:window-maximized="1"
     inkscape:current-layer="svg860" />
  <!--! Font Awesome Pro 6.4.0 by @fontawesome - https://fontawesome.com License - https://fontawesome.com/license (Commercial License) Copyright 2023 Fonticons, Inc. -->
  <path
     d="M393.4 9.4c12.5-12.5 32.8-12.5 45.3 0l64 64c12.5 12.5 12.5 32.8 0 45.3c-11.8 11.8-30.7 12.5-43.2 1.9l-9.5 9.5-48.8 48.8c-9.2 9.2-11.5 22.9-8.6 35.6c9.4 40.9-1.9 85.6-33.8 117.5L197.3 493.3c-25 25-65.5 25-90.5 0l-88-88c-25-25-25-65.5 0-90.5L180.2 153.3c31.9-31.9 76.6-43.1 117.5-33.8c12.6 2.9 26.4 .5 35.5-8.6l48.8-48.8 9.5-9.5c-10.6-12.6-10-31.4 1.9-43.2zM99.3 347.3l65.4 65.4c6.2 6.2 16.4 6.2 22.6 0l97.4-97.4c6.2-6.2 6.2-16.4 0-22.6l-65.4-65.4c-6.2-6.2-16.4-6.2-22.6 0L99.3 324.7c-6.2 6.2-6.2 16.4 0 22.6z"
     id="path858"
     style="fill:#ffffff;fill-opacity:0.5" />
</svg>
